<svg xmlns="http://www.w3.org/2000/svg" aria-hidden="true" style="position:absolute;width:0;height:0;overflow:hidden">
  <defs>
    <symbol id="icon-arrow" viewBox="0 0 86 32">
      <path d="M64.721 32c1.203-2.917 2.365-5.47 3.487-7.658 1.203-2.188 2.365-4.011 3.487-5.47h-70.095v-5.744h70.095c-1.122-1.55-2.284-3.419-3.487-5.607-1.122-2.188-2.284-4.695-3.487-7.521h4.208c5.050 6.655 10.34 11.578 15.87 14.769v2.462c-5.531 3.1-10.821 8.023-15.87 14.769h-4.208z"></path>
    </symbol>
    <symbol id="icon-facebook" viewBox="0 0 32 32">
      <path d="M19.52 4.64h.96v3.6h-1.2c-.48 0-.96 0-1.2.24s-.24.48-.24 1.04v1.28h2.64v3.04h-2.64v13.2h-4.08V13.76H11.6v-3.04h2.16V9.68c0-1.76.24-3.04.72-3.6.72-1.04 2.16-1.52 4.32-1.52.24.08.48.08.72.08z"/>
    </symbol>
    <symbol id="icon-instagram" viewBox="0 0 32 32">
      <path d="M28.718 10.756a9.264 9.264 0 0 0-.596-3.145 6.547 6.547 0 0 0-3.743-3.737 9.42 9.42 0 0 0-3.108-.596c-1.368-.061-1.801-.078-5.273-.078s-3.916 0-5.274.078a9.413 9.413 0 0 0-3.106.596 6.541 6.541 0 0 0-3.743 3.737 9.288 9.288 0 0 0-.596 3.101c-.061 1.367-.08 1.8-.08 5.265s0 3.909.08 5.265a9.335 9.335 0 0 0 .596 3.104 6.548 6.548 0 0 0 3.744 3.735 9.37 9.37 0 0 0 3.106.639c1.369.061 1.803.08 5.274.08s3.916 0 5.274-.08a9.362 9.362 0 0 0 3.108-.595 6.555 6.555 0 0 0 3.743-3.737 9.35 9.35 0 0 0 .596-3.104c.061-1.365.08-1.798.08-5.265-.003-3.466-.003-3.906-.082-5.264zM15.99 22.531c-3.631 0-6.572-2.936-6.572-6.561s2.941-6.561 6.572-6.561c3.628 0 6.572 2.936 6.572 6.561s-2.944 6.561-6.572 6.561zm6.834-11.835a1.53 1.53 0 1 1 0-3.06 1.53 1.53 0 1 1 0 3.06z"/>
      <path d="M15.992 19.976a4.004 4.004 0 1 0 0-8.009 4.004 4.004 0 0 0 0 8.009z"/>
    </symbol>
    <symbol id="icon-Star_10" viewBox="0 0 32 32">
      <path d="M15.685.183a.363.363 0 0 1 .63 0l2.206 3.831a.364.364 0 0 0 .52.119l3.69-2.517a.364.364 0 0 1 .568.277l.288 4.371a.363.363 0 0 0 .42.335l4.43-.7a.364.364 0 0 1 .393.498l-1.673 4.045c-.083.2.027.428.235.488l4.284 1.245c.275.08.354.431.14.621l-3.299 2.932a.364.364 0 0 0 0 .544l3.299 2.932a.363.363 0 0 1-.14.621l-4.284 1.245a.364.364 0 0 0-.235.488l1.673 4.045a.363.363 0 0 1-.393.498l-4.43-.7a.364.364 0 0 0-.42.335l-.288 4.371a.363.363 0 0 1-.568.276l-3.69-2.517a.364.364 0 0 0-.52.119l-2.206 3.831a.363.363 0 0 1-.63 0l-2.206-3.831a.364.364 0 0 0-.52-.119l-3.69 2.517a.364.364 0 0 1-.568-.276l-.288-4.371a.363.363 0 0 0-.42-.335l-4.43.7a.364.364 0 0 1-.393-.498l1.673-4.045a.363.363 0 0 0-.235-.488L.324 19.825a.363.363 0 0 1-.14-.621l3.299-2.932a.364.364 0 0 0 0-.544L.184 12.796a.363.363 0 0 1 .14-.621l4.284-1.245a.364.364 0 0 0 .235-.488L3.17 6.397a.364.364 0 0 1 .393-.498l4.43.7a.364.364 0 0 0 .42-.335l.288-4.371a.364.364 0 0 1 .568-.277l3.69 2.517a.364.364 0 0 0 .52-.119L15.685.183z"/>
    </symbol>
    <symbol id="icon-youtube" viewBox="0 0 32 32">
      <path d="M24.24 6c-1.36-.08-4.16-.16-8.4-.16h-.56c-4.08 0-6.8.08-8.16.24-1.84.16-3.12.64-3.84 1.28-.64.56-1.12 1.6-1.28 2.96-.08.88-.16 2.72-.16 5.52v.4c0 2.64.08 4.48.24 5.36.24 1.28.64 2.24 1.44 2.8.8.64 2.16 1.04 4.08 1.2 1.36.08 4.16.16 8.4.16h.56c4.08 0 6.8-.08 8.16-.24 1.84-.16 3.12-.64 3.84-1.28.64-.56 1.12-1.6 1.28-2.96.08-.88.16-2.72.16-5.52v-.4c0-2.64-.08-4.48-.24-5.36-.24-1.28-.64-2.24-1.44-2.8-.8-.64-2.16-1.04-4.08-1.2zm-3.12 9.84-8.8 5.28V10.56l8.8 5.28z"/>
    </symbol>
    <symbol id="icon-close" viewBox="0 0 32 32">
      <path stroke-linejoin="round" stroke-linecap="round" stroke-miterlimit="4" stroke-width="1.7778" d="M24 8l-16 16"></path>
      <path stroke-linejoin="round" stroke-linecap="round" stroke-miterlimit="4" stroke-width="1.7778" d="M8 8l16 16"></path>
    </symbol>
    <symbol id="icon-close-tablet" viewBox="0 0 32 32">
      <path stroke-linejoin="round" stroke-linecap="round" stroke-miterlimit="4" stroke-width="2.1818" d="M24 8l-16 16"></path>
      <path stroke-linejoin="round" stroke-linecap="round" stroke-miterlimit="4" stroke-width="2.1818" d="M8 8l16 16"></path>
    </symbol>
    <symbol id="icon-burger" viewBox="0 0 48 32">
      <path fill="none" stroke="#ecd979" style="stroke: var(--color1, #ecd979)" stroke-linejoin="miter" stroke-linecap="round" stroke-miterlimit="4" stroke-width="2.6667" d="M8.638 5.455h38.029"></path>
      <path fill="none" stroke="#ecd979" style="stroke: var(--color1, #ecd979)" stroke-linejoin="miter" stroke-linecap="round" stroke-miterlimit="4" stroke-width="2.6667" d="M8.638 24.849h38.029"></path>
      <path fill="none" stroke="#ecd979" style="stroke: var(--color1, #ecd979)" stroke-linejoin="miter" stroke-linecap="round" stroke-miterlimit="4" stroke-width="2.6667" d="M20.116 15.151h26.551"></path>
    </symbol>
  </defs>
</svg>
